<?xml version="1.0" encoding="UTF-8" standalone="no"?>
<!-- Created with Inkscape (http://www.inkscape.org/) -->

<svg
   xmlns:dc="http://purl.org/dc/elements/1.1/"
   xmlns:cc="http://creativecommons.org/ns#"
   xmlns:rdf="http://www.w3.org/1999/02/22-rdf-syntax-ns#"
   xmlns:svg="http://www.w3.org/2000/svg"
   xmlns="http://www.w3.org/2000/svg"
   xmlns:sodipodi="http://sodipodi.sourceforge.net/DTD/sodipodi-0.dtd"
   xmlns:inkscape="http://www.inkscape.org/namespaces/inkscape"
   width="93.345726mm"
   height="65.921318mm"
   viewBox="0 0 93.345726 65.921318"
   version="1.1"
   id="svg8"
   inkscape:version="0.92.4 (5da689c313, 2019-01-14)"
   sodipodi:docname="superhelp_logo.svg"
   inkscape:export-filename="/home/g/projects/superhelp/superhelp_logo.png"
   inkscape:export-xdpi="96"
   inkscape:export-ydpi="96">
  <defs
     id="defs2">
    <inkscape:path-effect
       effect="skeletal"
       id="path-effect4972"
       is_visible="true"
       pattern="m 60.80692,207.585 -0.62276,-0.0405 -0.15389,-0.6048 0.527651,-0.33326 0.479996,0.39885 z"
       copytype="repeated"
       prop_scale="1"
       scale_y_rel="false"
       spacing="0"
       normal_offset="0"
       tang_offset="0"
       prop_units="false"
       vertical_pattern="false"
       fuse_tolerance="0" />
    <inkscape:path-effect
       effect="skeletal"
       id="path-effect4944"
       is_visible="true"
       pattern="m 58.866112,205.1261 h 0.701582 v 0.66817 h -0.701582 z"
       copytype="single_stretched"
       prop_scale="1"
       scale_y_rel="false"
       spacing="0"
       normal_offset="0"
       tang_offset="0"
       prop_units="false"
       vertical_pattern="false"
       fuse_tolerance="0" />
    <inkscape:path-effect
       effect="skeletal"
       id="path-effect4907"
       is_visible="true"
       pattern="m 61.427734,769.66211 v 9.31641 h 7.748047 v -9.31641 z m 8.271485,0.0156 v 9.31446 h 7.748047 v -9.31446 z"
       copytype="repeated"
       prop_scale="1"
       scale_y_rel="false"
       spacing="0"
       normal_offset="0"
       tang_offset="0"
       prop_units="false"
       vertical_pattern="false"
       fuse_tolerance="0" />
    <inkscape:path-effect
       effect="skeletal"
       id="path-effect4889"
       is_visible="true"
       pattern="m 61.427734,769.66211 v 9.31641 h 7.748047 v -9.31641 z m 8.271485,0.0156 v 9.31446 h 7.748047 v -9.31446 z"
       copytype="repeated_stretched"
       prop_scale="1"
       scale_y_rel="false"
       spacing="0"
       normal_offset="0"
       tang_offset="0"
       prop_units="false"
       vertical_pattern="false"
       fuse_tolerance="0" />
    <inkscape:path-effect
       effect="skeletal"
       id="path-effect4861"
       is_visible="true"
       pattern="M 0,0 H 1"
       copytype="single_stretched"
       prop_scale="1"
       scale_y_rel="false"
       spacing="0"
       normal_offset="0"
       tang_offset="0"
       prop_units="false"
       vertical_pattern="false"
       fuse_tolerance="0" />
    <inkscape:path-effect
       effect="skeletal"
       id="path-effect4820"
       is_visible="true"
       pattern="m 61.427734,769.66211 v 9.31641 h 7.748047 v -9.31641 z m 8.271485,0.0156 v 9.31446 h 7.748047 v -9.31446 z"
       copytype="repeated_stretched"
       prop_scale="1"
       scale_y_rel="false"
       spacing="0"
       normal_offset="0"
       tang_offset="0"
       prop_units="false"
       vertical_pattern="false"
       fuse_tolerance="0" />
    <inkscape:path-effect
       effect="skeletal"
       id="path-effect4721"
       is_visible="true"
       pattern="m 61.427734,769.66211 v 9.31641 h 7.748047 v -9.31641 z m 8.271485,0.0156 v 9.31446 h 7.748047 v -9.31446 z"
       copytype="repeated"
       prop_scale="1"
       scale_y_rel="false"
       spacing="0.1"
       normal_offset="0"
       tang_offset="0"
       prop_units="false"
       vertical_pattern="false"
       fuse_tolerance="0" />
    <inkscape:path-effect
       effect="skeletal"
       id="path-effect4694"
       is_visible="true"
       pattern="M 0,0 H 1"
       copytype="single_stretched"
       prop_scale="1"
       scale_y_rel="false"
       spacing="0"
       normal_offset="0"
       tang_offset="0"
       prop_units="false"
       vertical_pattern="false"
       fuse_tolerance="0" />
    <inkscape:path-effect
       effect="skeletal"
       id="path-effect935"
       is_visible="true"
       pattern="M 0,0 H 1"
       copytype="single_stretched"
       prop_scale="1"
       scale_y_rel="false"
       spacing="0"
       normal_offset="0"
       tang_offset="0"
       prop_units="false"
       vertical_pattern="false"
       fuse_tolerance="0" />
  </defs>
  <sodipodi:namedview
     id="base"
     pagecolor="#ffffff"
     bordercolor="#666666"
     borderopacity="1.0"
     inkscape:pageopacity="1"
     inkscape:pageshadow="2"
     inkscape:zoom="1.979899"
     inkscape:cx="8.2743457"
     inkscape:cy="95.321425"
     inkscape:document-units="mm"
     inkscape:current-layer="layer1"
     showgrid="false"
     inkscape:window-width="1869"
     inkscape:window-height="1056"
     inkscape:window-x="1971"
     inkscape:window-y="24"
     inkscape:window-maximized="1"
     fit-margin-top="0"
     fit-margin-left="0"
     fit-margin-right="0"
     fit-margin-bottom="0"
     inkscape:pagecheckerboard="false" />
  <metadata
     id="metadata5">
    <rdf:RDF>
      <cc:Work
         rdf:about="">
        <dc:format>image/svg+xml</dc:format>
        <dc:type
           rdf:resource="http://purl.org/dc/dcmitype/StillImage" />
        <dc:title></dc:title>
      </cc:Work>
    </rdf:RDF>
  </metadata>
  <g
     inkscape:label="Layer 1"
     inkscape:groupmode="layer"
     id="layer1"
     transform="translate(-55.880255,-89.849988)">
    <path
       style="fill:#3b3f74;fill-opacity:1;stroke:none;stroke-width:33.15284348;stroke-miterlimit:4;stroke-dasharray:none;stroke-opacity:1"
       d="M 281.68359 0.00390625 C 277.92668 -0.0091550074 274.18542 0.01817 270.50586 0.03125 L 83.767578 0.03125 L 82.986328 0.03125 L 82.986328 0.04296875 A 82.216504 82.216504 0 0 0 11.845703 40.632812 A 82.216504 82.216504 0 0 0 11.480469 123.2207 A 82.216504 82.216504 0 0 0 81.882812 164.40234 L 81.882812 164.68555 L 268.19727 164.68555 L 268.2168 169.17773 L 82.296875 169.17773 L 0 169.17773 A 82.216501 84.506075 0 0 0 10.863281 206.99219 A 82.216501 84.506075 0 0 0 76.419922 248.88281 L 76.419922 249.14062 L 81.845703 249.14062 A 82.216501 84.506075 0 0 0 82.296875 249.15039 L 82.296875 249.14062 L 268.57031 249.14062 L 268.57031 249.15039 A 82.216504 82.216504 0 0 0 268.7793 249.14062 L 269.40234 249.14062 L 269.40234 249.11133 A 82.216504 82.216504 0 0 0 340.12891 207.91406 A 82.216504 82.216504 0 0 0 339.76367 125.32617 A 82.216504 82.216504 0 0 0 269.40234 84.746094 L 269.40234 84.722656 L 83.392578 84.722656 L 83.414062 79.994141 L 270.50586 79.994141 L 270.50586 80.003906 L 352.80273 80.003906 C 352.1333 66.694753 354.48107 36.631983 348.00977 25.083984 C 335.10234 2.1735036 307.98199 0.095335052 281.68359 0.00390625 z "
       transform="matrix(0.26458333,0,0,0.26458333,55.880255,89.849988)"
       id="path4991-7-1" />
    <path
       style="fill:#ffffff;fill-opacity:1;stroke:none;stroke-width:6.38603258;stroke-miterlimit:4;stroke-dasharray:none;stroke-opacity:1"
       id="path5097"
       sodipodi:type="arc"
       sodipodi:cx="140.07877"
       sodipodi:cy="98.10202"
       sodipodi:rx="3.2002347"
       sodipodi:ry="3.2002347"
       sodipodi:start="3.1432891"
       sodipodi:end="3.1403035"
       d="m 136.87854,98.096591 a 3.2002347,3.2002347 0 0 1 3.20327,-3.194804 3.2002347,3.2002347 0 0 1 3.19719,3.200885 3.2002347,3.2002347 0 0 1 -3.1985,3.199578 3.2002347,3.2002347 0 0 1 -3.20197,-3.196104"
       sodipodi:open="true" />
    <path
       style="fill:#ffffff;fill-opacity:1;stroke:none;stroke-width:6.38603258;stroke-miterlimit:4;stroke-dasharray:none;stroke-opacity:1"
       id="path5097-0"
       sodipodi:type="arc"
       sodipodi:cx="78.337524"
       sodipodi:cy="111.3783"
       sodipodi:rx="3.2002347"
       sodipodi:ry="3.2002347"
       sodipodi:start="3.1432891"
       sodipodi:end="3.1403035"
       d="m 75.137294,111.37287 a 3.2002347,3.2002347 0 0 1 3.203271,-3.1948 3.2002347,3.2002347 0 0 1 3.197194,3.20089 3.2002347,3.2002347 0 0 1 -3.198498,3.19958 3.2002347,3.2002347 0 0 1 -3.201969,-3.19611"
       sodipodi:open="true" />
    <path
       style="fill:#ffffff;fill-opacity:1;stroke:none;stroke-width:6.38603258;stroke-miterlimit:4;stroke-dasharray:none;stroke-opacity:1"
       id="path5097-0-9"
       sodipodi:type="arc"
       sodipodi:cx="124.23225"
       sodipodi:cy="133.99762"
       sodipodi:rx="3.2002347"
       sodipodi:ry="3.2002347"
       sodipodi:start="3.1432891"
       sodipodi:end="3.1403035"
       d="m 121.03202,133.99219 a 3.2002347,3.2002347 0 0 1 3.20327,-3.1948 3.2002347,3.2002347 0 0 1 3.19719,3.20088 3.2002347,3.2002347 0 0 1 -3.1985,3.19958 3.2002347,3.2002347 0 0 1 -3.20197,-3.1961"
       sodipodi:open="true" />
  </g>
</svg>
